<svg xmlns="http://www.w3.org/2000/svg" viewBox="0 0 64 64" width="64" height="64">
  <!-- Background circle -->
  <circle cx="32" cy="32" r="30" fill="#0d9488" />

  <g transform="translate(32, 32) scale(1.15) translate(-32, -32) translate(1, 3)">
    <!-- === Mahjong tile (五筒) - behind, tilted left === -->
    <g transform="rotate(-12, 28, 32)">
      <!-- Tile shadow -->
      <rect x="17" y="14" width="26" height="36" rx="3" ry="3" fill="#0a7068" />
      <!-- Tile side (3D) -->
      <rect x="15" y="12" width="26" height="36" rx="3" ry="3" fill="#d4d0c8" />
      <!-- Tile front face -->
      <rect x="15" y="11" width="26" height="35" rx="3" ry="3" fill="#f5f2eb" />

      <!-- 五筒 dots - teal single circles -->
      <!-- Top-left -->
      <circle cx="22.5" cy="20.5" r="3.2" fill="#0d9488" />
      <!-- Top-right -->
      <circle cx="33.5" cy="20.5" r="3.2" fill="#0d9488" />
      <!-- Center -->
      <circle cx="28" cy="28.5" r="3.2" fill="#0d9488" />
      <!-- Bottom-left -->
      <circle cx="22.5" cy="36.5" r="3.2" fill="#0d9488" />
      <!-- Bottom-right -->
      <circle cx="33.5" cy="36.5" r="3.2" fill="#0d9488" />
    </g>

    <!-- === 1000-point stick - front, tilted right, crossing the tile === -->
    <g transform="rotate(30, 36, 32)">
      <!-- Stick shadow -->
      <rect x="35.5" y="11" width="7" height="38" rx="2.5" ry="2.5" fill="#0a7068" />
      <!-- Stick body -->
      <rect x="34" y="9.5" width="7" height="38" rx="2.5" ry="2.5" fill="#f5f2eb" />
      <rect x="34" y="9.5" width="7" height="38" rx="2.5" ry="2.5" fill="none" stroke="#c8c4b8" stroke-width="0.5" />
      <!-- 1000-point marker -->
      <circle cx="37.5" cy="28.5" r="2.0" fill="#e63b2e" />
    </g>
  </g>
</svg>
